Coordinates
version=1
nRows=18
nColumns=34
inDegrees=no

Units are S.I. units (second, meters, Newtons, ...)
If the header above contains a line with 'inDegrees', this indicates whether rotational values are in degrees (yes) or radians (no).

endheader
time	pelvis_tilt	pelvis_list	pelvis_rotation	pelvis_tx	pelvis_ty	pelvis_tz	hip_flexion_r	hip_adduction_r	hip_rotation_r	knee_angle_r	ankle_angle_r	subtalar_angle_r	mtp_angle_r	hip_flexion_l	hip_adduction_l	hip_rotation_l	knee_angle_l	ankle_angle_l	subtalar_angle_l	mtp_angle_l	lumbar_extension	lumbar_bending	lumbar_rotation	arm_flex_r	arm_add_r	arm_rot_r	elbow_flex_r	pro_sup_r	arm_flex_l	arm_add_l	arm_rot_l	elbow_flex_l	pro_sup_l
1.6	-0.343052	0.0101371	0.0525694	-0.137352	1.01907	-0.571587	0.483643	-0.217782	-0.26217	0.232991	-0.455022	0.0671774	-0.0873817	0.590493	-0.229741	-0.364793	0.313264	-0.594508	0.130806	-0.0873817	-0.0801728	-0.0857162	-0.0410733	-5.8245	-0.873021	-6.17275	1.87174	1.45341	-0.542679	-0.842144	-0.724323	2.61975	2.09921
1.61	-0.313374	0.0181246	0.0583212	-0.131768	1.04267	-0.571288	0.40277	-0.217942	-0.305793	0.141791	-0.53768	0.108312	-0.0873817	0.518499	-0.221432	-0.432333	0.238815	-0.660974	0.159448	-0.0873817	-0.0977029	-0.10111	-0.0287625	-5.91717	-0.831026	-6.2273	1.80877	1.46455	-0.454545	-0.819508	-0.599201	2.62157	2.09569
1.62	-0.282398	0.0253387	0.0648645	-0.127399	1.0653	-0.571037	0.331151	-0.21906	-0.344506	0.0742295	-0.601796	0.140906	-0.0873817	0.456042	-0.214459	-0.487164	0.184902	-0.707507	0.178567	-0.0873817	-0.122549	-0.114893	-0.0187949	-5.98911	-0.786346	-6.27271	1.74465	1.47246	-0.370703	-0.793693	-0.49554	2.62279	2.09242
1.63	-0.251273	0.0313573	0.0720667	-0.124349	1.08675	-0.57084	0.271094	-0.221035	-0.374434	0.0331734	-0.645905	0.161496	-0.0873817	0.404819	-0.209653	-0.524682	0.152545	-0.735439	0.186873	-0.0873817	-0.153126	-0.126091	-0.0113099	-6.04037	-0.741075	-6.30788	1.68137	1.47782	-0.291602	-0.764306	-0.410951	2.62236	2.08991
1.64	-0.22116	0.0357575	0.0797038	-0.122631	1.10684	-0.570701	0.223813	-0.223606	-0.392873	0.0185227	-0.671273	0.16872	-0.0873817	0.365625	-0.207765	-0.542701	0.140653	-0.748344	0.184776	-0.0873817	-0.187586	-0.133905	-0.006237	-6.07243	-0.697051	-6.33245	1.62065	1.48174	-0.217885	-0.731473	-0.342365	2.61916	2.08831
1.65	-0.193143	0.0381367	0.0874678	-0.122172	1.12549	-0.570613	0.189432	-0.226317	-0.398714	0.0273999	-0.681076	0.163437	-0.0873817	0.338411	-0.209385	-0.541753	0.146395	-0.750711	0.1741	-0.0873817	-0.223919	-0.137771	-0.00328612	-6.08795	-0.655641	-6.34677	1.5638	1.48564	-0.150385	-0.69577	-0.286633	2.61221	2.08758
1.66	-0.168184	0.0381542	0.094975	-0.122819	1.14266	-0.570551	0.167108	-0.228524	-0.392562	0.0546709	-0.679335	0.148355	-0.0873817	0.322432	-0.214877	-0.524832	0.16571	-0.746812	0.157496	-0.0873817	-0.260096	-0.137445	-0.00197093	-6.09032	-0.617661	-6.3518	1.51177	1.49116	-0.0900121	-0.658127	-0.240869	2.60078	2.08752
1.67	-0.147078	0.0355993	0.101811	-0.124359	1.15836	-0.570475	0.155236	-0.229511	-0.376578	0.0936509	-0.670045	0.127272	-0.0873817	0.316397	-0.224313	-0.496704	0.193849	-0.740031	0.137742	-0.0873817	-0.294234	-0.133063	-0.00164474	-6.0834	-0.5834	-6.34902	1.46515	1.49994	-0.0375459	-0.619714	-0.202582	2.58466	2.08789
1.68	-0.130416	0.0304613	0.107597	-0.126545	1.17263	-0.570338	0.151739	-0.228667	-0.354117	0.137052	-0.656597	0.104252	-0.0873817	0.318658	-0.237433	-0.463047	0.225932	-0.732574	0.117224	-0.0873817	-0.324726	-0.125139	-0.00160409	-6.07104	-0.552748	-6.34024	1.42431	1.51333	0.0065139	-0.581796	-0.16975	2.56429	2.08848
1.69	-0.118566	0.0229762	0.112069	-0.129125	1.18551	-0.570097	0.154381	-0.225663	-0.329167	0.177979	-0.641489	0.0828422	-0.0873817	0.327407	-0.25365	-0.429536	0.257492	-0.725468	0.097622	-0.0873817	-0.350346	-0.114518	-0.00123916	-6.05681	-0.525333	-6.32728	1.38939	1.53208	0.0419963	-0.54559	-0.140873	2.54074	2.0891
1.7	-0.111662	0.0136334	0.115122	-0.131865	1.19704	-0.569718	0.161058	-0.220554	-0.305737	0.210817	-0.626255	0.0655168	-0.0873817	0.340879	-0.272087	-0.401054	0.284942	-0.718759	0.0798207	-0.0873817	-0.370324	-0.102282	-0.00017061	-6.04356	-0.500675	-6.31178	1.36033	1.55609	0.0690398	-0.512154	-0.115003	2.51552	2.08963
1.71	-0.109582	0.00313969	0.116833	-0.134572	1.2073	-0.569189	0.170011	-0.213796	-0.287299	0.231874	-0.611589	0.0534234	-0.0873817	0.357498	-0.291664	-0.381096	0.305902	-0.711876	0.0639874	-0.0873817	-0.384402	-0.0896307	0.00168539	-6.03331	-0.478307	-6.295	1.33688	1.58413	0.0880623	-0.482323	-0.0917055	2.49036	2.09003
1.72	-0.11192	-0.00764816	0.117423	-0.137106	1.21633	-0.568512	0.179935	-0.206184	-0.276373	0.239701	-0.597581	0.0464224	-0.0873817	0.375933	-0.311194	-0.371422	0.319315	-0.704044	0.0497777	-0.0873817	-0.392871	-0.077751	0.00414478	-6.02717	-0.457848	-6.27784	1.31869	1.61398	0.0997431	-0.456688	-0.0709638	2.46696	2.09027
1.73	-0.117967	-0.0178113	0.117197	-0.139379	1.2242	-0.56771	0.189977	-0.198731	-0.274275	0.235041	-0.584004	0.0433786	-0.0873817	0.395059	-0.329482	-0.371968	0.32534	-0.694653	0.0366117	-0.0873817	-0.396562	-0.0677067	0.0068558	-6.02538	-0.439061	-6.26088	1.30535	1.64285	0.105005	-0.435598	-0.0530212	2.44672	2.09037
1.74	-0.126745	-0.0264707	0.116477	-0.141352	1.23099	-0.566817	0.199672	-0.192514	-0.281022	0.22045	-0.570523	0.0426153	-0.0873817	0.413907	-0.345425	-0.381026	0.325069	-0.683461	0.0239593	-0.0873817	-0.396747	-0.0603349	0.0094297	-6.02758	-0.421861	-6.24454	1.29637	1.66843	0.104966	-0.419155	-0.0382033	2.43064	2.09037
1.75	-0.137116	-0.0329005	0.115542	-0.143022	1.23678	-0.565882	0.208845	-0.188507	-0.295398	0.199649	-0.556813	0.0424022	-0.0873817	0.431646	-0.35812	-0.395648	0.320176	-0.670624	0.0115632	-0.0873817	-0.394937	-0.0561602	0.0115582	-6.03294	-0.406302	-6.22914	1.29117	1.6893	0.100856	-0.40721	-0.0267644	2.41914	2.09031
1.76	-0.147931	-0.0366405	0.1146	-0.144411	1.24163	-0.564956	0.217517	-0.187405	-0.315177	0.176745	-0.54259	0.0413327	-0.0873817	0.447635	-0.366996	-0.412248	0.312572	-0.656591	-0.000452171	-0.0873817	-0.39262	-0.0553346	0.0130936	-6.04046	-0.392547	-6.21494	1.28918	1.70502	0.0939029	-0.39938	-0.0187952	2.41207	2.09022
1.77	-0.158192	-0.0375713	0.113756	-0.145555	1.2456	-0.564085	0.225804	-0.189492	-0.33748	0.155481	-0.527655	0.038518	-0.0873817	0.461484	-0.371915	-0.427282	0.304132	-0.641949	-0.0116073	-0.0873817	-0.391014	-0.0576272	0.0140808	-6.04913	-0.380805	-6.20214	1.28974	1.71589	0.085238	-0.395083	-0.0141948	2.40879	2.09012
